OpenSim_Sub02_CSBaseline_GRF.mot
version=1
nRows=28
nColumns=19
inDegrees=no
endheader
time	lFx	lFy	lFz	lCOPx	lCOPy	lCOPz	rFx	rFy	rFz	rCOPx	rCOPy	rCOPz	lMx	lMy	lMz	rMx	rMy	rMz
17.64000000	-11.37897175	195.85660579	-4.88770905	1.04450746	0	-0.63847378	47.70458542	458.63429207	-41.84207170	0.71754534	0	-0.41551818	0	1.22788020	0	0	2.64491909	0
17.65000000	-25.88692851	253.51732493	0.84290919	1.03505636	0	-0.63080862	48.76397113	436.11703466	-38.40154496	0.71274513	0	-0.41615125	0	1.50403193	0	0	2.60384015	0
17.66000000	-40.01049248	310.90193261	8.09888364	1.02424746	0	-0.62456957	48.91109538	409.70865581	-34.42499318	0.70775421	0	-0.41681711	0	1.48137911	0	0	2.49093528	0.00000000
17.67000000	-51.38907084	357.47520119	14.81342209	1.01729908	0	-0.62184468	48.27629086	379.15619656	-30.32394774	0.70254501	0	-0.41756575	0	1.41327577	0	0	2.33233880	-0.00000000
17.68000000	-58.13578201	386.03889583	19.79048278	1.01394824	0	-0.62161390	46.87749117	344.44083728	-26.33452019	0.69721137	0	-0.41841354	0	1.36632934	0	0	2.16144658	0.00000000
17.69000000	-59.55244479	396.34378049	24.13685474	1.01092763	0	-0.62255136	44.45034059	306.05185297	-22.54694676	0.69190017	0	-0.41926591	0	0.98011668	0	0	1.97200675	0.00000000
17.70000000	-57.05482206	394.00474653	29.60765217	1.00550152	0	-0.62386959	40.70860257	264.99247001	-19.02358992	0.68638633	0	-0.42005718	0	-0.11770012	0	0	1.78425881	-0.00000000
17.71000000	-52.84439425	386.04197121	35.67476153	0.99775983	0	-0.62525459	35.53720155	222.87422084	-15.83871078	0.68051212	0	-0.42082329	0	-1.66813035	0	0	1.61556666	-0.00000000
17.72000000	-48.61844606	378.02210685	40.80942389	0.98949526	0	-0.62659261	29.04671412	181.68899568	-13.24257458	0.67397334	0	-0.42196756	0	-3.10827745	0	0	1.45638710	0.00000000
17.73000000	-45.05903191	373.77345234	44.09655849	0.98157154	0	-0.62767144	21.93861708	143.67132982	-11.60371155	0.66863573	0	-0.42427613	0	-4.01068223	0	0	1.29803545	0
17.74000000	-42.00930170	375.53495908	45.47692463	0.97417692	0	-0.62836664	14.91721135	110.53142195	-10.85718367	0.66742063	0	-0.42889383	0	-4.24036060	0	0	1.09713374	0
17.75000000	-39.14925218	383.87973119	45.57890739	0.96670419	0	-0.62870951	8.28717657	83.31924178	-10.54208824	0.67075253	0	-0.43587290	0	-3.96865966	0	0	0.86475408	-0.00000000
17.76000000	-36.45417002	398.25084978	45.20744597	0.95898991	0	-0.62879287	2.42290189	62.50052385	-10.20788994	0.67178398	0	-0.44089409	0	-3.40586791	0	0	0.66507825	-0.00000000
17.77000000	-34.07408297	417.28084027	44.76693732	0.95136218	0	-0.62878465	-2.03690824	47.62562339	-9.67988550	0.65250150	0	-0.43115861	0	-2.64219725	0	0	0.51939530	-0.00000000
17.78000000	-32.01077733	439.38278579	44.53212457	0.94403914	0	-0.62878036	-4.60346983	37.34088593	-8.94886760	0.58364252	0	-0.38536451	0	-1.83387745	0	0	0.40831813	-0.00000000
17.79000000	-30.20236946	462.89426445	44.66504823	0.93699489	0	-0.62883711	-5.31299330	29.72158662	-7.84751840	0.43623291	0	-0.28471629	0	-1.09734296	0	0	0.24459377	0
17.80000000	-28.66418025	486.14041063	45.16910828	0.93005241	0	-0.62899457	-4.80421211	23.39989458	-6.59598214	0.23654168	0	-0.14987111	0	-0.48493969	0	0	0.07742215	0.00000000
17.81000000	-27.61234430	507.68345762	46.09167354	0.92327304	0	-0.62923069	-3.97292016	17.67982930	-5.41563801	0.07893041	0	-0.04731651	0	-0.07023147	0	0	-0.00792901	-0.00000000
17.82000000	-27.16406936	526.62731343	47.29711470	0.91651503	0	-0.62948372	-3.20516256	12.21611143	-4.18761345	0.00129213	0	0.00135408	0	0.16103450	0	0	-0.02681636	-0.00000000
17.83000000	-27.12764895	542.49587271	48.44004160	0.90976975	0	-0.62978416	-2.32805687	7.09136587	-2.76519756	-0.01977329	0	0.01357069	0	0.31075293	0	0	-0.01954137	-0.00000000
17.84000000	-27.17568807	555.00721694	49.37389990	0.90305559	0	-0.63011227	-1.21781365	2.93905132	-1.19424505	-0.01629162	0	0.01059021	0	0.39971578	0	0	-0.00869173	0.00000000
17.85000000	-27.02563677	564.12329155	50.13060352	0.89633561	0	-0.63033816	-0.35316984	0.54261354	-0.02857743	-0.00792761	0	0.00496411	0	0.43197394	0	0	-0.00185803	-0.00000000
17.86000000	-26.45391174	569.93057705	50.56835747	0.88967510	0	-0.63044753	0.08271275	-0.31942683	0.16280790	-0.00209865	0	0.00121162	0	0.43436734	0	0	0.00079334	0.00000000
17.87000000	-25.28791311	572.37996420	50.61824443	0.88291895	0	-0.63047718	0.20149471	-0.28902518	0.14035858	0.00039772	0	-0.00033174	0	0.38245431	0	0	0.00112998	0.00000000
17.88000000	-23.42894354	571.30493026	50.25651615	0.87607901	0	-0.63050648	0.16866398	0.01288146	0.18643367	0.00087430	0	-0.00058714	0	0.28785906	0	0	0.00070232	-0.00000000
17.89000000	-20.89491934	566.59431078	49.38993884	0.86916705	0	-0.63058365	0.10765425	0.22869147	0.07298330	0.00060040	0	-0.00038615	0	0.24659833	0	0	0.00026855	0.00000000
17.90000000	-17.96520652	558.65944395	48.07816890	0.86229173	0	-0.63070461	0.02905900	0.29458988	-0.01146098	0.00025376	0	-0.00015666	0	0.25997275	0	0	0.00003142	0.00000000
17.91000000	-14.97536832	548.47206084	46.45210059	0.85545742	0	-0.63081418	-0.02256197	0.25416513	-0.01009499	0.00004637	0	-0.00002454	0	0.28115578	0	0	-0.00004548	-0.00000000
